<svg xmlns="http://www.w3.org/2000/svg" viewBox="0 0 388 620" role="img"><title>Bad Decisions heart arrow</title><path d="M 348.763 83.988 C 344.739 86.536, 343.929 87.591, 343.385 90.994 C 343.033 93.197, 342.592 95, 342.406 95 C 342.220 95, 340.574 94.288, 338.748 93.417 C 335.487 91.862, 335.290 91.906, 327.538 95.917 C 323.199 98.163, 319.140 100, 318.518 100 C 317.897 100, 315.942 101.067, 314.173 102.372 C 312.405 103.677, 308.830 105.538, 306.229 106.509 C 300.252 108.739, 297.832 110.831, 298.206 113.445 C 298.458 115.207, 299.496 115.608, 305.500 116.257 C 309.350 116.673, 313.063 117.222, 313.750 117.476 C 316.226 118.390, 314.912 122.004, 310.250 127.098 C 294.392 144.425, 295.548 143.470, 292.147 142.061 C 289.860 141.114, 288.277 141.056, 286.030 141.840 C 283.240 142.812, 282.881 142.671, 281.542 140.081 C 280.356 137.788, 278.877 136.961, 273.587 135.632 C 270.013 134.735, 264.459 134, 261.244 134 C 251.044 134, 232.043 138.927, 225.846 143.179 C 224.386 144.181, 222.733 145, 222.172 145 C 221.612 145, 219.118 146.553, 216.631 148.452 C 214.143 150.351, 210.287 152.833, 208.060 153.969 C 200.221 157.969, 185.403 175.712, 180.267 187.250 C 179.594 188.762, 178.563 190, 177.976 190 C 176.454 190, 172.912 185.997, 170 180.986 C 166.312 174.640, 154.636 163.169, 149.594 160.939 C 147.185 159.873, 144.972 158.370, 144.676 157.598 C 144.380 156.827, 141.617 155.252, 138.537 154.100 C 135.456 152.947, 131.836 151.283, 130.492 150.403 C 129.032 149.446, 124.513 148.507, 119.274 148.072 C 114.448 147.671, 109.456 146.784, 108.181 146.099 C 105.101 144.447, 94.181 145.613, 89.267 148.119 C 87.238 149.153, 84.324 150, 82.791 150 C 73.835 150, 53.915 165.096, 48.483 176 C 46.976 179.025, 44.855 182.760, 43.768 184.300 C 39.320 190.605, 35.790 210.907, 36.697 224.968 C 37.036 230.211, 37.892 235.400, 38.600 236.500 C 39.308 237.600, 40.350 241.390, 40.916 244.922 C 41.481 248.454, 42.407 251.807, 42.972 252.372 C 43.537 252.937, 44 254.393, 44 255.607 C 44 256.822, 45.726 261.119, 47.836 265.157 C 59.181 286.869, 61.456 290.754, 64.439 293.500 C 66.231 295.150, 68.271 297.965, 68.972 299.755 C 70.376 303.340, 76.230 309, 78.535 309 C 79.439 309, 80 309.977, 80 311.550 C 80 315.254, 82.228 318.988, 86.980 323.249 C 90.031 325.985, 91.757 326.848, 93.367 326.444 C 95.133 326.001, 96.115 326.718, 98.286 330.035 C 99.818 332.373, 101 335.582, 101 337.399 C 101 339.169, 101.661 341.491, 102.468 342.559 C 105.068 345.996, 104.084 348.348, 96.721 356.289 L 89.500 364.078 77.746 366.539 C 71.282 367.893, 64.936 369, 63.644 369 C 60.290 369, 54.559 373.157, 54.169 375.873 C 53.843 378.143, 53.937 378.166, 60.669 377.461 C 64.426 377.068, 69.187 376.080, 71.248 375.265 C 75.434 373.611, 78 374.110, 78 376.577 C 78 379.139, 82.561 377.513, 86.011 373.721 C 87.623 371.949, 88.955 370.163, 88.971 369.750 C 88.987 369.337, 89.659 369, 90.465 369 C 91.270 369, 92.411 368.100, 93 367 C 93.589 365.900, 94.677 365, 95.419 365 C 96.160 365, 97.002 364.100, 97.290 363 C 97.577 361.900, 98.305 361, 98.906 361 C 101.008 361, 99.969 363.188, 96 367.117 C 93.800 369.295, 92 371.426, 92 371.853 C 92 373.380, 77.136 388, 75.584 388 C 73.408 388, 73.598 386.732, 76 385.232 C 77.100 384.545, 78 383.022, 78 381.847 C 78 379.808, 77.665 379.737, 70.591 380.272 C 66.516 380.580, 62.174 381.372, 60.941 382.032 C 59.708 382.691, 55.878 383.581, 52.430 384.009 C 45.799 384.831, 41.084 387.385, 41.031 390.183 C 40.979 392.994, 44.675 393.258, 52.320 390.988 C 56.323 389.800, 60.925 388.979, 62.549 389.164 C 66.209 389.581, 66.549 392.355, 63 392.846 C 61.625 393.036, 59.999 393.602, 59.387 394.104 C 58.775 394.606, 55.625 395.494, 52.387 396.076 C 43.637 397.651, 31.532 401.856, 29.024 404.193 C 27.049 406.032, 26.978 406.406, 28.341 407.770 C 29.988 409.416, 32.636 409.080, 45.758 405.559 C 49.200 404.636, 53.700 404.020, 55.758 404.190 L 59.500 404.500 59.499 410 C 59.498 413.025, 59.158 420.788, 58.744 427.250 L 57.991 439 60.547 439 C 62.517 439, 63.434 438.207, 64.551 435.532 C 65.348 433.625, 66.016 430.137, 66.036 427.782 C 66.055 425.427, 66.723 420.800, 67.520 417.500 C 68.317 414.200, 68.976 409.395, 68.984 406.821 C 69.001 401.804, 71.022 398.661, 73.871 399.219 C 75.620 399.562, 75.830 403.167, 74.936 417.500 C 74.514 424.278, 74.574 424.500, 76.817 424.500 C 78.539 424.500, 79.752 423.345, 81.542 420 C 83.662 416.041, 84.028 413.718, 84.583 400.677 C 85.080 389.028, 85.528 385.735, 86.675 385.295 C 89.313 384.282, 89.748 386.374, 89.008 396.500 C 88.596 402.150, 88.668 406.999, 89.176 407.647 C 90.431 409.250, 93.868 408.142, 95.477 405.617 C 96.724 403.659, 98.781 382.430, 98.211 377.405 C 97.866 374.372, 100.395 369.054, 104.196 364.817 C 106.013 362.791, 108.283 360.203, 109.240 359.067 C 112.307 355.425, 114.440 356.559, 123.670 366.736 C 128.527 372.091, 135.462 379.629, 139.082 383.486 C 146.860 391.774, 162.986 415.774, 169.441 428.667 C 173.864 437.504, 175.631 439.467, 178.250 438.454 C 178.938 438.188, 181.878 434.233, 184.786 429.664 C 187.693 425.095, 193.457 417.339, 197.595 412.428 C 201.733 407.518, 208.030 400.046, 211.588 395.824 C 215.146 391.602, 218.382 388.002, 218.779 387.824 C 219.175 387.646, 223.434 383, 228.243 377.500 C 233.051 372, 239.826 364.575, 243.297 361 C 246.769 357.425, 251.360 351.800, 253.500 348.500 C 255.640 345.200, 258.765 340.857, 260.445 338.848 C 262.125 336.840, 265.075 333.015, 267 330.349 C 268.925 327.683, 270.845 325.051, 271.267 324.501 C 274.262 320.594, 278.368 314.933, 280.447 311.843 C 281.944 309.619, 284.266 307.737, 286.375 307.041 C 289.406 306.041, 289.927 305.370, 290.519 301.699 C 290.891 299.389, 293.113 294.125, 295.456 290 C 297.798 285.875, 300.511 280.025, 301.483 277 C 302.455 273.975, 304.061 270.600, 305.052 269.500 C 306.042 268.400, 307.527 265.700, 308.351 263.500 C 316.032 242.989, 318.250 234.104, 317.343 227.486 C 316.896 224.226, 317.212 221.855, 318.464 219.080 C 320.417 214.749, 320.200 207.629, 317.952 202.305 C 316.836 199.663, 316.829 198.687, 317.912 196.665 C 318.949 194.727, 318.991 192.693, 318.114 186.860 C 315.956 172.516, 315.334 170.284, 312.184 165.617 C 310.433 163.023, 309 160.560, 309 160.144 C 309 159.729, 307.875 157.864, 306.500 156 C 305.125 154.136, 304.004 152.136, 304.009 151.556 C 304.013 150.975, 305.541 148.892, 307.404 146.928 C 309.267 144.963, 313.154 140.463, 316.042 136.928 C 324.787 126.225, 326.814 125.535, 329.791 132.250 C 330.827 134.588, 332.466 137.153, 333.432 137.951 C 335.002 139.247, 335.389 139.141, 337.072 136.951 C 338.108 135.603, 338.980 133.600, 339.009 132.500 C 339.038 131.400, 340.171 128.700, 341.526 126.500 C 342.881 124.300, 343.996 121.825, 344.004 121 C 344.012 120.175, 345.125 117.250, 346.478 114.500 C 347.831 111.750, 348.963 108.825, 348.994 108 C 349.050 106.506, 354.925 94.412, 358.578 88.269 C 360.069 85.764, 360.253 84.641, 359.399 83.269 C 357.664 80.481, 353.900 80.736, 348.763 83.988 M 315.745 107.761 C 312.193 109.964, 312.733 111.422, 317.242 111.805 C 320.130 112.051, 320.957 111.711, 321.480 110.064 C 322.791 105.933, 320.304 104.935, 315.745 107.761 M 333.503 121.991 C 332.777 124.277, 333.695 126.307, 335.069 125.457 C 336.283 124.707, 336.281 120, 335.067 120 C 334.554 120, 333.850 120.896, 333.503 121.991 M 310.750 130.984 C 309.238 132.573, 308 134.576, 308 135.436 C 308 137.672, 311.743 137.384, 312.471 135.092 C 312.804 134.043, 313.734 132.932, 314.538 132.624 C 316.318 131.941, 316.501 127.981, 314.750 128.048 C 314.063 128.075, 312.262 129.396, 310.750 130.984 M 268 141.545 C 266.625 142.306, 263.250 142.956, 260.500 142.988 C 257.750 143.021, 253.925 143.447, 252 143.934 C 238.963 147.237, 232.171 149.349, 230 150.775 C 228.625 151.678, 225.834 153.336, 223.798 154.459 C 209.016 162.609, 197.044 173.930, 191.975 184.553 C 190.250 188.167, 188.180 191.377, 187.377 191.686 C 186.573 191.994, 185.049 193.879, 183.991 195.873 C 182.934 197.868, 181.201 200.596, 180.140 201.935 C 178.289 204.273, 178.112 204.304, 175.682 202.711 C 174.290 201.799, 172.835 200.054, 172.447 198.833 C 170.899 193.955, 157.477 176.451, 151.578 171.618 C 149.087 169.577, 146.440 167.297, 145.694 166.551 C 143.376 164.233, 130.692 158.320, 126.712 157.702 C 124.628 157.378, 121.556 155.963, 119.885 154.557 C 116.249 151.497, 116.455 151.504, 102.129 154.010 C 95.875 155.105, 89.659 156, 88.316 156 C 86.973 156, 82.908 157.431, 79.283 159.179 C 74.440 161.515, 72.409 163.106, 71.626 165.179 C 71.033 166.750, 69.808 168, 68.861 168 C 67.115 168, 57.998 176.941, 54.802 181.787 C 52.618 185.100, 52.478 188.586, 54.500 189.362 C 56.915 190.288, 56.228 191.841, 53.250 192.184 C 50.929 192.451, 50.115 193.436, 48.029 198.500 C 46.055 203.295, 45.484 206.678, 45.189 215.339 C 44.860 224.972, 45.034 226.418, 46.760 228.339 C 49.944 231.882, 50.110 232.702, 48.373 236.345 C 46.730 239.790, 46.751 239.908, 50.356 247.401 C 52.360 251.567, 54 255.514, 54 256.172 C 54 257.434, 56.767 263.796, 60.230 270.500 C 61.367 272.700, 63.318 276.558, 64.566 279.074 C 65.814 281.590, 68.474 285.087, 70.478 286.847 C 72.926 288.996, 74.606 291.678, 75.599 295.023 C 76.412 297.760, 77.498 300, 78.013 300 C 78.528 300, 79.599 301.257, 80.393 302.794 C 81.188 304.331, 84.012 307.882, 86.669 310.687 C 89.326 313.491, 92.625 317.971, 94 320.643 C 95.375 323.314, 96.786 325.725, 97.135 326 C 102.838 330.492, 107.380 334.955, 108.077 336.750 C 108.919 338.918, 113 340.026, 113 338.085 C 113 336.285, 123.534 325, 125.215 325 C 128.194 325, 129.356 328.657, 127.960 333.642 C 127.281 336.067, 126.308 338.310, 125.797 338.626 C 124.087 339.682, 119 347.282, 119 348.779 C 119 349.592, 122.772 354.137, 127.383 358.879 C 131.994 363.620, 136.078 368.526, 136.460 369.779 C 136.841 371.032, 139.031 373.999, 141.327 376.371 C 150.582 385.935, 154.737 390.607, 155.848 392.699 C 156.490 393.909, 158.210 395.484, 159.670 396.199 C 161.221 396.960, 162.826 398.954, 163.534 401 C 165.343 406.234, 171.425 416.116, 174.832 419.359 C 177.817 422.199, 177.852 422.205, 180.370 420.359 C 181.764 419.336, 183.435 417.252, 184.083 415.726 C 184.732 414.201, 185.766 412.626, 186.381 412.226 C 186.997 411.827, 189.213 409.250, 191.307 406.500 C 193.400 403.750, 199.025 397.417, 203.807 392.426 C 214.464 381.301, 218.257 377.085, 223.978 370 C 226.421 366.975, 231.657 361.063, 235.614 356.862 C 239.570 352.661, 243.636 347.936, 244.649 346.362 C 245.662 344.788, 247.765 342.079, 249.322 340.343 C 250.879 338.606, 253.051 335.510, 254.148 333.463 C 256.212 329.612, 265.261 318.279, 267.711 316.476 C 269.378 315.249, 273.152 309.202, 276.122 303 C 277.307 300.525, 278.928 298.119, 279.724 297.653 C 281.550 296.583, 291.468 281.283, 292.480 277.974 C 292.896 276.613, 293.811 274.825, 294.513 274 C 296.287 271.916, 303.076 255.355, 304.147 250.500 C 304.632 248.300, 305.657 244.925, 306.424 243 C 309.381 235.578, 311.328 224.975, 312.115 212 L 312.934 198.500 310.467 196.462 C 307.735 194.206, 307.428 192.350, 309.159 188.551 C 310.094 186.499, 310.024 185.670, 308.794 184.254 C 307.956 183.289, 306.990 180.925, 306.646 179 C 304.944 169.459, 303.878 165.469, 302.948 165.154 C 302.386 164.964, 300.640 163.727, 299.069 162.404 C 297.497 161.082, 295.795 160, 295.286 160 C 294.777 160, 292.848 161.350, 291 163 C 287.329 166.277, 286.023 166.623, 284.200 164.800 C 282.296 162.896, 282.796 159.740, 285.501 156.594 C 286.876 154.996, 288 152.971, 288 152.094 C 288 149.751, 282.068 145.422, 277.746 144.612 C 275.681 144.225, 273.206 143.065, 272.246 142.035 C 270.694 140.370, 270.222 140.315, 268 141.545 M 199.645 207.484 C 192.849 210.740, 192.486 211.264, 194.385 215.069 C 195.607 217.520, 196 221.280, 196 230.531 C 196 246.863, 197.185 247.842, 207.322 239.880 C 216.647 232.557, 221 225.559, 221 217.895 C 221 213.115, 220.670 212.377, 216.958 208.845 C 213.531 205.585, 212.275 205.012, 208.708 205.079 C 206.394 205.122, 202.315 206.204, 199.645 207.484 M 174.311 212.786 C 173.048 213.589, 167.010 227.915, 166.985 230.167 C 166.977 230.900, 166.362 233.300, 165.617 235.500 C 164.873 237.700, 163.986 242.313, 163.647 245.750 C 163.047 251.837, 163.093 252, 165.408 252 C 167.789 252, 169 250.350, 169 247.105 C 169 244.520, 174.290 239.948, 177.558 239.709 C 179.961 239.534, 180.753 240.131, 182.489 243.426 C 184.742 247.703, 186.773 248.985, 188.042 246.933 C 189.212 245.039, 188.005 231.885, 186.429 229.356 C 185.694 228.176, 184.131 224.351, 182.955 220.856 C 181.780 217.360, 180.354 213.938, 179.787 213.250 C 178.634 211.853, 176.115 211.640, 174.311 212.786 M 203.617 214.250 C 202.762 215.596, 202.050 219.904, 201.844 224.976 C 201.540 232.457, 201.709 233.494, 203.276 233.805 C 207.019 234.546, 215.712 221.971, 214.578 217.454 C 213.190 211.925, 206.361 209.929, 203.617 214.250 M 143.753 219.472 C 136.717 222.395, 132.313 225.440, 131.523 227.926 C 131.196 228.959, 131.853 231.575, 132.986 233.749 C 134.779 237.189, 134.909 238.328, 133.996 242.598 C 133.419 245.294, 133.134 250.169, 133.362 253.432 C 133.829 260.105, 135.795 262.516, 139.926 261.481 C 146.013 259.956, 159.754 246.428, 159.934 241.783 C 159.970 240.839, 158.425 238.492, 156.500 236.567 C 154.575 234.642, 153 232.662, 153 232.168 C 153 231.674, 153.900 230.126, 155 228.727 C 158.053 224.846, 157.603 221.338, 153.750 218.989 C 151.963 217.899, 150.275 217.025, 150 217.046 C 149.725 217.067, 146.914 218.159, 143.753 219.472 M 142.628 226.078 C 139.501 228.538, 139.256 233.247, 142.227 233.810 C 144.700 234.279, 149.203 229.447, 148.817 226.739 C 148.388 223.737, 145.937 223.475, 142.628 226.078 M 174.229 226.171 C 172.515 227.885, 172.693 231.945, 174.513 232.643 C 176.784 233.515, 179.141 231.015, 178.801 228.094 C 178.468 225.246, 176.136 224.264, 174.229 226.171 M 281.199 238.353 C 276.947 241.490, 273 247.461, 273 250.756 C 273 252.702, 274.487 254.808, 278.500 258.542 C 286.202 265.710, 285.753 270, 277.300 270 C 273.396 270, 273 270.227, 273 272.465 C 273 275.312, 275.537 277, 279.818 277 C 281.987 277, 283.718 275.948, 286.358 273.025 C 292.764 265.935, 292.195 260.637, 284.441 255.172 C 281.391 253.022, 280.005 251.330, 280.015 249.771 C 280.039 246.197, 281.160 245.247, 286.250 244.484 C 290.354 243.870, 291 243.456, 291 241.443 C 291 239.210, 287.740 236, 285.472 236 C 284.876 236, 282.953 237.059, 281.199 238.353 M 146.500 240.952 C 142.846 242.504, 140 245.998, 140 248.932 C 140 252.619, 141.967 253.307, 145.815 250.966 C 153.391 246.359, 153.978 237.777, 146.500 240.952 M 264.146 244.010 C 263.569 245.666, 262.798 249.660, 262.433 252.888 C 262.068 256.115, 261.417 259.326, 260.986 260.023 C 259.547 262.351, 257.051 260.170, 256.385 256.004 C 255.752 252.048, 252.732 247, 250.999 247 C 248.614 247, 247 250.435, 247 255.512 C 247 258.466, 246.566 261.150, 246.036 261.477 C 244.790 262.248, 241 258.466, 241 256.452 C 241 254.217, 236.091 250, 233.489 250 C 230.163 250, 226.253 253.579, 223.275 259.349 C 221.031 263.696, 220.607 265.826, 220.558 273 C 220.507 280.504, 220.786 281.881, 222.938 284.750 C 228.420 292.058, 237.485 286.269, 240.947 273.250 C 242.864 266.042, 245 268.294, 245 277.523 C 245 280.515, 245.513 283.199, 246.162 283.600 C 248.278 284.908, 251 280.114, 251 275.080 C 251 272.434, 251.655 269.535, 252.500 268.441 C 253.985 266.520, 254.015 266.520, 255.500 268.441 C 256.325 269.509, 257 271.092, 257 271.959 C 257 272.826, 258.145 275.220, 259.544 277.280 C 261.645 280.371, 262.408 280.852, 263.926 280.040 C 265.302 279.303, 265.900 277.482, 266.306 272.778 C 266.605 269.325, 267.340 261.589, 267.940 255.586 C 268.540 249.584, 268.769 243.846, 268.448 242.836 C 267.559 240.034, 265.319 240.646, 264.146 244.010 M 211.690 256.319 C 209.807 257.797, 207.567 286.322, 209.108 289.202 C 211.333 293.358, 215.154 290.193, 214.974 284.342 C 214.909 282.229, 215.178 275.061, 215.573 268.412 C 216.190 257.988, 216.076 256.243, 214.742 255.731 C 213.891 255.405, 212.517 255.669, 211.690 256.319 M 193.206 259.143 C 189.777 261.339, 186 267.492, 186 270.883 C 186 273.412, 190.404 278.641, 194.178 280.592 C 196.638 281.864, 197.068 282.634, 196.809 285.306 C 196.509 288.408, 196.349 288.509, 191.250 288.802 C 186.817 289.057, 186 289.408, 186 291.052 C 186 293.843, 189.546 297, 192.680 297 C 194.583 297, 196.619 295.648, 199.702 292.338 C 206.853 284.659, 206.427 281.304, 197.485 274.882 C 193.548 272.055, 192.946 271.163, 193.202 268.546 C 193.469 265.815, 193.914 265.445, 197.500 264.965 C 203.557 264.155, 204.274 263.430, 202.471 259.943 C 200.635 256.394, 197.871 256.156, 193.206 259.143 M 229.450 259.081 C 228.295 260.949, 226.073 271.344, 226.036 275.050 C 225.962 282.381, 230.719 283.120, 233.763 276.250 C 238.005 266.673, 237.445 258, 232.584 258 C 231.228 258, 229.817 258.486, 229.450 259.081 M 175.551 266.250 C 174.614 270.578, 173.053 295.973, 173.631 297.480 C 174.441 299.591, 178.745 299.419, 179.368 297.250 C 179.644 296.288, 179.886 292.350, 179.905 288.500 C 179.924 284.650, 180.229 278.698, 180.584 275.273 C 180.938 271.848, 180.943 267.910, 180.595 266.523 C 179.777 263.262, 176.239 263.071, 175.551 266.250 M 159.906 267.779 C 155.536 270.840, 153.145 274.431, 150.934 281.254 C 147.353 292.310, 149.802 302.453, 156.683 305.070 C 159.164 306.013, 162.747 304.859, 164.180 302.654 C 165.352 300.851, 163.014 297.763, 160.897 298.317 C 157.607 299.177, 156 296.414, 156 289.896 C 156 283.289, 157.633 278.472, 160.843 275.612 C 162.550 274.091, 163.249 273.962, 164.437 274.948 C 166.501 276.660, 168 275.406, 168 271.967 C 168 269.773, 167.295 268.687, 165.149 267.577 C 162.594 266.256, 162.050 266.277, 159.906 267.779 M 135.193 274.173 C 127.743 277.920, 126.439 279.769, 127.970 284.410 C 128.755 286.788, 128.764 290.895, 128.002 298.974 C 126.547 314.411, 127.765 315.630, 138.969 309.936 C 145.435 306.651, 148.224 303.390, 145.853 301.888 C 143.863 300.627, 142.401 300.812, 141 302.500 C 140.315 303.325, 138.235 304, 136.378 304 C 133.323 304, 133 303.725, 133 301.122 C 133 298.757, 133.987 297.564, 138.534 294.432 C 142.048 292.012, 143.873 290.112, 143.534 289.228 C 143.240 288.463, 143 287.704, 143 287.541 C 143 287.379, 140.975 287.474, 138.500 287.753 C 134.282 288.228, 134.001 288.111, 134.015 285.880 C 134.037 282.541, 134.824 281.620, 140.500 278.292 C 143.760 276.380, 145.500 274.688, 145.500 273.430 C 145.500 270.428, 142.161 270.669, 135.193 274.173 M 104.995 282.285 C 99.234 285.331, 98.248 287.032, 99.783 291.277 C 100.484 293.215, 101 299.722, 101 306.621 C 101 318.851, 101.603 321, 105.037 321 C 106.777 321, 113.933 313.851, 117.596 308.454 C 118.805 306.673, 120.115 303.704, 120.508 301.857 C 120.901 300.011, 121.837 297.801, 122.588 296.947 C 125.505 293.630, 124.746 287.305, 120.945 283.250 C 118.425 280.561, 117.157 280, 113.607 280 C 111.064 280, 107.554 280.931, 104.995 282.285 M 110.250 286.031 C 109.013 286.529, 107.955 287.288, 107.900 287.718 C 107.845 288.148, 107.682 292.550, 107.538 297.500 C 107.171 310.068, 109.039 312.183, 113.500 304.250 C 117.026 297.979, 117.975 289.735, 115.486 286.985 C 113.485 284.774, 113.411 284.760, 110.250 286.031 M 288.212 322.188 C 287.546 322.854, 287 325.735, 287 328.590 C 287 334.922, 284.334 349.452, 282.531 352.946 C 281.296 355.339, 280.592 362.444, 280.876 369.644 C 281.040 373.814, 285.839 379, 289.533 379 C 291.369 379, 293.368 377.830, 295.632 375.429 L 299 371.858 299 361.558 C 299 352.415, 298.672 350.486, 296.081 344.379 C 294.261 340.091, 292.848 334.515, 292.331 329.575 C 291.502 321.672, 290.509 319.891, 288.212 322.188 M 108.068 349.904 C 106.152 352.595, 105.388 355, 106.448 355 C 107.689 355, 112 350.058, 112 348.635 C 112 346.148, 110.368 346.674, 108.068 349.904 M 292.987 362.539 C 292.099 365.230, 292.098 366.413, 292.983 367.479 C 295.710 370.766, 298.295 365.538, 296.393 360.582 C 295.423 358.054, 294.244 358.732, 292.987 362.539 M 253.667 388.667 C 253.300 389.033, 253 391.523, 253 394.198 C 253 396.874, 252.138 401.636, 251.085 404.782 C 246.489 418.507, 245.951 422.023, 247.583 427.638 C 250.053 436.133, 256.865 438.807, 261.053 432.926 C 264.380 428.253, 264.736 419.464, 262.041 408.468 C 257.434 389.666, 256.017 386.316, 253.667 388.667 M 258 422 C 258 424.200, 258.450 426, 259 426 C 259.550 426, 260 424.200, 260 422 C 260 419.800, 259.550 418, 259 418 C 258.450 418, 258 419.800, 258 422 M 193.667 455.667 C 193.300 456.033, 192.993 459.071, 192.985 462.417 C 192.960 472.303, 190.581 473.771, 187.987 465.500 C 185.482 457.513, 184.189 455.852, 180.740 456.191 L 177.592 456.500 177.417 467.500 C 177.320 473.550, 177.125 481.706, 176.983 485.623 C 176.701 493.423, 177.198 495, 179.937 495 C 183.050 495, 184.293 492.442, 183.559 487.547 C 182.886 483.059, 184.086 479, 186.086 479 C 186.645 479, 187.772 480.688, 188.591 482.750 C 192.341 492.192, 193.376 494, 195.029 494 C 195.979 494, 197.172 493.438, 197.682 492.750 C 198.192 492.063, 198.720 484.791, 198.854 476.592 C 198.989 468.363, 199.582 460.782, 200.176 459.671 C 201.036 458.064, 200.887 457.391, 199.435 456.329 C 197.481 454.900, 194.747 454.586, 193.667 455.667 M 142.025 457.975 C 139.383 460.617, 138.495 464.597, 139.873 467.621 C 141.617 471.448, 141.225 474.579, 138.500 478.595 C 134.863 483.955, 135.033 490.187, 138.923 494.077 C 142.174 497.328, 145.437 497.783, 148.769 495.449 C 150.213 494.438, 152.639 494.003, 155.742 494.199 C 159.920 494.463, 160.536 494.246, 160.798 492.412 C 160.962 491.264, 160.400 489.747, 159.548 489.040 C 157.618 487.438, 157.576 484.721, 159.427 481.141 C 161.449 477.230, 160.049 475.201, 156.457 476.838 C 153.156 478.342, 150 477.479, 150 475.072 C 150 474.086, 151.125 471.621, 152.500 469.595 C 155.393 465.332, 155.543 463.951, 153.537 460.072 C 151.189 455.532, 145.504 454.496, 142.025 457.975 M 205.053 457.436 C 204.243 458.412, 204.170 459.454, 204.825 460.686 C 205.383 461.737, 205.599 469.085, 205.338 478.156 C 205.080 487.151, 205.280 494.055, 205.809 494.382 C 206.315 494.695, 209.209 495.242, 212.239 495.598 C 217.027 496.161, 218.160 495.942, 220.889 493.924 C 223.569 491.942, 223.826 491.398, 222.642 490.213 C 221.878 489.449, 219.559 488.667, 217.489 488.475 C 212.815 488.040, 211.754 487.025, 212.172 483.385 C 212.393 481.456, 213.544 479.873, 215.711 478.514 C 219.751 475.981, 219.858 473.495, 216.014 471.507 C 212.688 469.787, 211.139 465.743, 212.964 463.543 C 213.618 462.756, 215.802 461.974, 217.818 461.806 C 220.469 461.585, 221.582 460.979, 221.840 459.620 C 222.363 456.864, 220.294 456.032, 212.872 456.015 C 208.317 456.005, 205.872 456.449, 205.053 457.436 M 227.597 457.270 C 226.412 458.159, 225.995 459.182, 226.490 459.985 C 227.595 461.772, 227.099 489.281, 225.941 490.450 C 222.521 493.903, 227.496 497.011, 236.399 496.985 C 242.323 496.967, 244.339 495.998, 243.840 493.406 C 243.588 492.099, 242.227 491.338, 239.226 490.826 C 233.477 489.844, 233 489.427, 233 485.390 C 233 482.362, 233.453 481.709, 236.408 480.474 C 238.283 479.691, 240.010 478.476, 240.246 477.775 C 240.917 475.779, 239.898 473, 238.494 473 C 237.794 473, 236.204 472.176, 234.960 471.169 C 233.187 469.733, 232.847 468.746, 233.387 466.595 C 234.030 464.033, 234.382 463.873, 238.787 464.149 C 243.397 464.438, 243.507 464.377, 243.804 461.350 C 244.158 457.743, 243.517 457.375, 235.318 456.479 C 231.034 456.012, 228.998 456.220, 227.597 457.270 M 107.410 460.149 C 105.291 461.177, 101 468.808, 101 471.547 C 101 473.302, 105.689 480.998, 106.763 481.005 C 107.168 481.007, 108.963 482.380, 110.750 484.055 C 114.415 487.490, 114.919 490.859, 112.143 493.370 C 110.486 494.870, 110.151 494.887, 109.021 493.525 C 107.418 491.594, 103.615 491.554, 102.040 493.452 C 100.218 495.647, 101.772 498.923, 105.471 500.688 C 108.357 502.064, 109.308 502.088, 113.047 500.881 C 119.107 498.923, 121.455 495.352, 121.352 488.245 C 121.270 482.570, 121.249 482.530, 115.128 477.025 C 110.424 472.793, 108.988 470.856, 108.993 468.750 C 108.997 467.238, 109.563 465.947, 110.250 465.882 C 112.667 465.652, 114.515 466.194, 116.079 467.590 C 118.795 470.015, 120 469.230, 120 465.035 C 120 462.139, 119.479 460.791, 118.066 460.035 C 115.657 458.746, 110.182 458.805, 107.410 460.149 M 248.858 459.716 C 248.780 460.147, 248.624 467.700, 248.511 476.500 C 248.399 485.300, 247.997 493.465, 247.619 494.645 C 246.632 497.725, 249.078 499.686, 254.911 500.488 C 260.539 501.262, 261.657 500.811, 265.489 496.221 C 267.679 493.598, 268.403 491.394, 269.105 485.221 C 270.551 472.509, 267.225 461.657, 261.536 460.526 C 256.257 459.476, 248.986 459.011, 248.858 459.716 M 92.192 462.808 C 90.514 464.486, 90.320 465.736, 90.765 471.963 C 91.275 479.090, 91.253 479.172, 88.924 478.838 C 87.590 478.647, 86.071 477.415, 85.425 476 C 81.246 466.853, 80.353 465.479, 78.412 465.202 C 75.114 464.731, 73.574 467.339, 74.902 471.148 C 75.934 474.110, 75.705 492.172, 74.488 503.736 C 74.077 507.638, 74.250 508.025, 76.677 508.634 C 80.607 509.620, 82.129 506.946, 81.360 500.404 C 81.021 497.519, 81.050 493.937, 81.425 492.443 L 82.106 489.728 84.986 492.487 C 86.759 494.185, 88.122 496.762, 88.532 499.189 C 89.011 502.025, 89.881 503.444, 91.626 504.239 C 95.894 506.184, 96.285 504.568, 96.717 483.215 C 97.056 466.471, 96.885 463.149, 95.627 462.105 C 94.412 461.097, 93.771 461.229, 92.192 462.808 M 274.456 462.408 C 273.130 463.378, 272.870 464.492, 273.358 467.097 C 273.711 468.977, 273.580 471.976, 273.068 473.763 C 272.511 475.705, 272.483 480.325, 272.999 485.255 C 273.577 490.779, 273.500 494.748, 272.763 497.282 C 271.391 502.005, 272.074 502.779, 279.736 505.171 C 287.017 507.444, 287.151 507.439, 289.958 504.824 L 292.293 502.649 289.586 500.321 C 287.723 498.718, 286.153 498.174, 284.549 498.577 C 283.134 498.932, 281.896 498.640, 281.398 497.834 C 280.946 497.104, 280.560 488.909, 280.539 479.623 C 280.501 463.272, 280.432 462.713, 278.348 461.938 C 276.993 461.434, 275.550 461.608, 274.456 462.408 M 296.123 465.903 C 295.026 466.597, 294.784 470.433, 294.930 484.793 C 295.049 496.561, 294.746 503.039, 294.056 503.465 C 291.784 504.870, 293.217 507.077, 297.967 509.483 C 300.698 510.867, 304.198 512, 305.744 512 C 309.338 512, 313 509.448, 313 506.943 C 313 505.460, 312.305 505, 310.065 505 C 308.451 505, 305.988 504.566, 304.593 504.035 C 299.995 502.287, 299.946 494.554, 304.526 493.404 C 309.915 492.051, 310.136 487.156, 304.929 484.463 C 302.698 483.310, 302 482.248, 302 480.010 C 302 476.176, 304.836 474.513, 308.514 476.189 C 310.662 477.167, 311.309 477.122, 312.049 475.943 C 312.973 474.470, 312.414 471.189, 310.975 469.637 C 310.534 469.162, 308.117 468.542, 305.603 468.259 C 303.089 467.975, 300.520 467.126, 299.894 466.372 C 298.573 464.780, 298.007 464.710, 296.123 465.903 M 255.975 468.565 C 255.439 469.976, 255 475.546, 255 480.943 C 255 488.408, 255.356 491.050, 256.487 491.989 C 257.305 492.668, 258.570 492.995, 259.298 492.716 C 261.217 491.979, 263 485.151, 263 478.535 C 263 468.938, 258.345 462.332, 255.975 468.565 M 61.981 468.927 C 60.689 469.704, 60.479 473.153, 60.579 491.936 C 60.644 504.087, 60.934 514.267, 61.224 514.558 C 61.515 514.848, 63.271 514.362, 65.126 513.477 L 68.500 511.869 68.334 490.184 L 68.167 468.500 65.834 468.257 C 64.550 468.123, 62.816 468.425, 61.981 468.927 M 36.750 475.656 C 34.138 476.967, 32 478.494, 32 479.051 C 32 479.608, 32.638 481.590, 33.417 483.456 C 35.163 487.634, 35.376 517.765, 33.695 522.749 C 31.964 527.880, 33.819 528.776, 39.400 525.505 C 44.026 522.795, 44.892 521.292, 42.948 519.348 C 42.363 518.763, 42.031 515.475, 42.198 511.932 C 42.496 505.647, 42.555 505.529, 46.861 502.642 C 49.260 501.034, 52.556 497.644, 54.185 495.109 C 56.744 491.129, 57.097 489.748, 56.777 484.984 C 56.520 481.160, 55.673 478.476, 54.015 476.234 C 51.834 473.284, 51.179 473.012, 46.562 473.137 C 43.461 473.221, 39.660 474.197, 36.750 475.656 M 318.471 476.216 C 316.069 479.071, 315.825 480.020, 316.304 484.652 C 316.716 488.650, 317.761 491.115, 320.767 495.186 C 322.926 498.109, 325.444 501.955, 326.363 503.733 C 327.974 506.850, 327.955 507.045, 325.856 509.144 L 323.679 511.321 321.839 509.050 C 320.828 507.801, 320 506.153, 320 505.389 C 320 503.799, 316.432 503.492, 315.498 505.003 C 315.157 505.555, 315.185 508.050, 315.560 510.549 C 316.120 514.285, 316.882 515.527, 319.853 517.546 C 326.892 522.330, 331.973 520.017, 333.871 511.165 C 335.256 504.709, 333.544 499.460, 327.855 492.713 C 322.968 486.917, 322.030 481.709, 325.777 481.177 C 327.551 480.925, 328.289 481.531, 329.124 483.927 C 330.411 487.616, 332.632 487.902, 334.148 484.574 C 335.773 481.008, 334.453 477.443, 330.634 475.083 C 325.625 471.987, 321.724 472.351, 318.471 476.216 M 42.525 481.618 C 41.332 482.811, 40.985 484.714, 41.204 488.868 C 41.460 493.736, 41.788 494.541, 43.625 494.803 C 47.010 495.286, 49 492.444, 49 487.129 C 49 480.511, 46.100 478.043, 42.525 481.618 M 142.170 483.750 C 141.033 485.961, 141.660 487.748, 144.015 489.008 C 147.740 491.001, 150.112 488.061, 148.393 483.582 C 147.576 481.452, 143.292 481.568, 142.170 483.750 M 183.518 507.915 C 182.228 508.419, 180.993 510.573, 179.977 514.094 C 178.723 518.441, 177.957 519.566, 176.072 519.837 C 173.485 520.210, 172.039 518.623, 172.015 515.385 C 171.992 512.192, 168.235 508, 165.396 508 C 164.044 508, 162.712 508.588, 162.436 509.307 C 162.160 510.025, 162.378 514.515, 162.920 519.285 C 163.715 526.279, 163.614 528.937, 162.400 533.025 C 160.215 540.383, 161.590 543.246, 166.418 541.393 C 167.550 540.959, 168 539.449, 168 536.084 C 168 533.498, 168.641 530.509, 169.425 529.441 C 170.800 527.569, 170.889 527.600, 171.925 530.315 C 172.516 531.863, 173 533.551, 173 534.065 C 173 537.432, 179.098 532.418, 180.544 527.862 C 181.797 523.914, 183.506 526.740, 184 533.578 C 184.451 539.816, 184.722 540.532, 186.750 540.820 C 189.399 541.196, 189.236 542.410, 189.007 524 C 188.844 510.934, 188.149 506.844, 186.128 507.070 C 185.782 507.109, 184.608 507.489, 183.518 507.915 M 198.302 508.012 C 196.197 508.860, 196.091 509.525, 195.802 523.699 C 195.611 533.046, 195.888 538.967, 196.554 539.768 C 198.067 541.589, 209.258 541.853, 211.355 540.117 C 213.602 538.256, 211.742 536, 207.959 536 C 203.626 536, 202 535.002, 202 532.342 C 202 530.494, 202.854 529.541, 205.500 528.436 C 207.862 527.448, 209 526.317, 209 524.953 C 209 523.704, 207.664 522.144, 205.500 520.867 C 203.575 519.732, 202 518.204, 202 517.473 C 202 515.203, 205.006 513, 208.103 513 C 211.763 513, 213.137 510.305, 210.471 508.355 C 208.403 506.843, 201.676 506.653, 198.302 508.012 M 143.500 509.167 C 140.108 511.043, 137 514.271, 136.994 515.924 C 136.990 516.791, 136.315 518.789, 135.494 520.364 C 130.926 529.123, 137.115 543.861, 145.405 543.964 C 149.077 544.009, 155.420 537.650, 156.352 532.988 C 158.114 524.182, 156.528 516.119, 152.077 511.246 C 148.969 507.843, 146.831 507.325, 143.500 509.167 M 218.750 509.080 C 217.207 509.979, 217 511.863, 217 524.977 L 217 539.855 219.635 541.927 C 222.859 544.464, 223.083 544.468, 228.330 542.078 C 233.874 539.552, 236.056 536.998, 237.488 531.358 C 239.109 524.974, 237.005 515.598, 233.279 512.601 C 227.510 507.961, 222.681 506.791, 218.750 509.080 M 240.667 510.667 C 239.466 511.867, 239.968 517.509, 241.465 519.647 C 244.759 524.349, 247.259 533.163, 246.682 538.035 C 246.235 541.809, 246.486 543.129, 247.888 544.399 C 251.629 547.784, 253.443 545.869, 253.123 538.872 C 252.898 533.923, 254.520 529.743, 259.537 522.350 C 262.637 517.783, 262.525 513.646, 259.290 513.186 C 257.598 512.945, 256.752 513.648, 255.678 516.186 C 254.907 518.009, 253.318 520.353, 252.148 521.396 C 250.031 523.282, 250.012 523.274, 248.510 519.678 C 247.679 517.690, 247 515.678, 247 515.206 C 247 514.304, 242.744 510, 241.852 510 C 241.567 510, 241.033 510.300, 240.667 510.667 M 116.285 514.250 C 112.011 518.908, 109 526.616, 109 532.896 C 109 538.268, 109.327 539.204, 112.304 542.360 C 116.503 546.813, 120.140 547.781, 124.628 545.640 C 128.521 543.784, 130.707 539.556, 128.899 537.378 C 127.285 535.433, 125.690 535.665, 124.193 538.063 C 122.496 540.780, 118.940 540.237, 117.226 537 C 115.702 534.125, 116.309 523.537, 118.123 521.352 C 119.679 519.477, 123.709 519.658, 124.827 521.654 C 125.384 522.650, 126.399 523.061, 127.376 522.686 C 129.506 521.868, 129.542 515.685, 127.429 513.571 C 125.028 511.171, 118.759 511.552, 116.285 514.250 M 224.454 517.260 C 224.157 518.034, 224.046 522.450, 224.207 527.073 C 224.452 534.093, 224.784 535.532, 226.223 535.807 C 228.454 536.233, 231.991 530.520, 231.996 526.484 C 232.004 520.499, 226.019 513.180, 224.454 517.260 M 142.615 519.465 C 141.581 521.043, 141 524.091, 141 527.942 C 141 533.155, 141.313 534.159, 143.359 535.500 C 147.881 538.463, 149.960 535.738, 149.986 526.815 C 150.013 517.731, 146.225 513.955, 142.615 519.465" stroke="none" fill="#111111" fill-rule="evenodd"/></svg>